<svg width="116" height="124" viewBox="0 0 116 124" xmlns="http://www.w3.org/2000/svg"><g stroke-width="5" fill="none" fill-rule="evenodd" stroke-linecap="round" stroke-linejoin="round"><path d="M30.6 100.2v6.8m18.2-6.8v6.8m18.2-6.8v6.8m18.3-6.8v6.8m-41-83.4v6.8M58 23.6v6.8m13.7-6.8v6.8M44.3 77.5v6.8M58 77.5v6.8m13.7-6.8v6.8M27.2 68.5H34m-6.8-13.7H34m-6.8-13.7H34m49.4 27.4h6.8m-6.8-13.7h6.8m-6.8-13.7h6.8" stroke="#FF8A50"/><path d="M112.6 116.4c0 2.7-2.2 4.9-4.9 4.9H8.3c-2.7 0-4.9-2.2-4.9-4.9v-50c4.8-2.1 8.1-6.9 8.1-12.5S8.2 43.5 3.4 41.4V7.5c0-2.7 2.2-4.9 4.9-4.9h99.3c2.7 0 4.9 2.2 4.9 4.9v33.9c-4.8 2.1-8.1 6.9-8.1 12.5s3.3 10.4 8.1 12.5v50h.1z" stroke="#592ACB"/><path d="M78.9 76.6H38.5c-2.5 0-4.5-2-4.5-4.5V35.8c0-2.5 2-4.5 4.5-4.5h40.4c2.5 0 4.5 2 4.5 4.5v36.3c0 2.5-2.1 4.5-4.5 4.5z" stroke="#952BB9" fill="#FF8A50"/></g></svg>