<svg width="96" height="96" viewBox="0 0 96 96" xmlns="http://www.w3.org/2000/svg"><g transform="translate(2 2.3)" fill="none" fill-rule="evenodd"><path d="M17.488 54.747c0-15.96 12.932-28.896 28.884-28.896 15.953 0 28.886 12.938 28.886 28.897" stroke="#306FFD" stroke-width="3" stroke-linecap="round"/><path d="M25.226 54.747c0-11.682 9.468-21.153 21.147-21.153 11.678 0 21.145 9.47 21.145 21.153" stroke="#306FFD" stroke-width="3" stroke-linecap="round"/><path d="M50.35 52.822a3.976 3.976 0 11-7.953-.001 3.976 3.976 0 117.952 0" fill="#306FFD"/><path d="M50.35 53.582a3.977 3.977 0 11-7.952.002 3.977 3.977 0 017.951-.003zM45.62 25.85v7.744m21.177.721l-5.472 5.474m-35.377-5.474l5.473 5.474m-6.195 14.955h-7.738m57.77 0h-7.74M46.76 53.603l9.853-8.644" stroke="#306FFD" stroke-width="3" stroke-linecap="round"/><circle stroke="#306FFD" stroke-width="3" cx="46" cy="46" r="46"/></g></svg>